HIERARCHY
ROOT Hips
{
	OFFSET 0.000000 0.000000 0.000000
	CHANNELS 6 Xposition Yposition Zposition Zrotation Yrotation Xrotation 
	JOINT LHipJoint
	{
		OFFSET 0.000000 0.000000 0.000000
		CHANNELS 3 Zrotation Yrotation Xrotation
		JOINT LeftUpLeg
		{
			OFFSET 1.363060 -1.794630 0.839290
			CHANNELS 3 Zrotation Yrotation Xrotation
			JOINT LeftLeg
			{
				OFFSET 2.448110 -6.726130 0.000000
				CHANNELS 3 Zrotation Yrotation Xrotation
				JOINT LeftFoot
				{
					OFFSET 2.562200 -7.039590 0.000000
					CHANNELS 3 Zrotation Yrotation Xrotation
					JOINT LeftToeBase
					{
						OFFSET 0.157640 -0.433110 2.322550
						CHANNELS 3 Zrotation Yrotation Xrotation
						End Site
						{
							OFFSET 0.000000 0.000000 0.000000
						}
					}
				}
			}
		}
	}
	JOINT RHipJoint
	{
		OFFSET 0.000000 0.000000 0.000000
		CHANNELS 3 Zrotation Yrotation Xrotation
		JOINT RightUpLeg
		{
			OFFSET -1.305520 -1.794630 0.839290
			CHANNELS 3 Zrotation Yrotation Xrotation
			JOINT RightLeg
			{
				OFFSET -2.542530 -6.985550 0.000000
				CHANNELS 3 Zrotation Yrotation Xrotation
				JOINT RightFoot
				{
					OFFSET -2.568260 -7.056230 0.000000
					CHANNELS 3 Zrotation Yrotation Xrotation
					JOINT RightToeBase
					{
						OFFSET -0.164730 -0.452590 2.363150
						CHANNELS 3 Zrotation Yrotation Xrotation
						End Site
						{
							OFFSET 0.000000 0.000000 0.000000
						}
					}
				}
			}
		}
	}
}
MOTION
Frames: 21
Frame Time: 0.008333
-4.095898 17.221058 -0.223965 -155.163287 85.745912 -124.985078 -8.933914 -0.967815 -0.251820 -21.124357 -4.010976 -55.433445 -3.139155 0.353640 19.559189 1.754364 8.987428 -0.799593 1.971100 0.000000 -32.609900 9.637226 -0.965833 -6.935614 14.112098 -16.827557 -36.810581 1.296407 -4.512646 48.777781 -0.606163 -1.549693 11.516706 -0.557901 0.000000 -76.143800
-3.899450 17.225865 -0.257874 -152.930337 85.476615 -123.017685 -8.974929 -0.893339 -0.319963 -21.873247 -3.343646 -55.057725 -3.211405 0.288866 18.709379 1.759447 9.266663 -0.056849 2.166700 0.000000 -32.156900 9.690716 -1.030437 -6.977194 14.097660 -17.332910 -36.802860 1.168953 -4.599246 49.847538 -0.693317 -1.885883 12.977158 -0.666101 -0.000000 -74.621200
-3.703023 17.218924 -0.291404 -150.533351 85.234869 -120.883473 -9.005725 -0.824173 -0.395791 -22.529936 -2.680003 -54.755761 -3.254450 0.252538 18.224768 1.802270 9.654007 0.406477 2.335600 0.000000 -30.975300 9.746490 -1.086369 -6.994933 14.065380 -17.734988 -36.870659 1.040871 -4.692256 51.096226 -0.784085 -2.288004 13.991855 -0.802101 0.000000 -72.830500
-3.507301 17.199960 -0.325282 -147.815631 85.015245 -118.436240 -9.031618 -0.769309 -0.479893 -23.047308 -2.030120 -54.508463 -3.265928 0.242564 18.097588 1.878351 10.108340 0.538022 2.455900 0.000000 -29.029700 9.799606 -1.137126 -6.997677 14.023730 -18.035563 -36.985136 0.910796 -4.791942 52.506774 -0.871945 -2.734795 14.544160 -0.954900 -0.000001 -70.914700
-3.312493 17.168706 -0.359680 -144.788440 84.813219 -115.678356 -9.052998 -0.733403 -0.560971 -23.390526 -1.438341 -54.304004 -3.244901 0.252340 18.290044 1.986723 10.615569 0.318627 2.514500 0.000000 -26.426900 9.849289 -1.182500 -6.987474 13.974224 -18.228956 -37.149794 0.776437 -4.898889 54.068921 -0.952695 -3.205071 14.639846 -1.110200 0.000000 -69.008000
-3.118675 17.124897 -0.394631 -141.477660 84.619648 -112.622707 -9.070855 -0.719513 -0.629394 -23.543344 -0.939121 -54.154391 -3.193208 0.279625 18.793630 2.124336 11.148610 -0.270865 2.492700 0.000000 -23.306500 9.894022 -1.223328 -6.962855 13.925831 -18.305081 -37.376680 0.635553 -5.012790 55.772682 -1.023839 -3.678705 14.303772 -1.252700 -0.000001 -67.180100
-2.926214 17.068675 -0.430210 -137.946827 84.423736 -109.329825 -9.087280 -0.730238 -0.685131 -23.510304 -0.542088 -54.073002 -3.114814 0.326472 19.624428 2.285789 11.668960 -1.249914 2.367201 -0.000000 -19.821500 9.932172 -1.260255 -6.925845 13.883614 -18.267517 -37.665300 0.487353 -5.132777 57.599902 -1.083691 -4.131946 13.579612 -1.366500 -0.000000 -65.473000
-2.735750 17.000598 -0.466369 -134.330647 84.217846 -105.937133 -9.103101 -0.766494 -0.732943 -23.313913 -0.247594 -54.063189 -3.014726 0.394825 20.789807 2.466119 12.150743 -2.615025 2.122100 0.000000 -16.185300 9.964180 -1.291966 -6.881179 13.841692 -18.131804 -38.007819 0.332342 -5.258017 59.526448 -1.131341 -4.540361 12.527090 -1.438300 0.000000 -63.927400
-2.547622 16.921352 -0.502780 -130.765763 83.995419 -102.577808 -9.118224 -0.826473 -0.778537 -22.991365 -0.043818 -54.153475 -2.899784 0.490312 22.319800 2.659288 12.566343 -4.355755 1.746200 -0.000000 -12.560500 9.990887 -1.317723 -6.828706 13.800779 -17.905469 -38.409211 0.170904 -5.387283 61.531502 -1.167188 -4.889322 11.213350 -1.462400 -0.000001 -62.531700
-2.362450 16.832033 -0.539106 -127.386050 83.754137 -99.390142 -9.132906 -0.907633 -0.833022 -22.588560 0.097386 -54.360061 -2.777039 0.618410 24.232530 2.858380 12.897348 -6.438154 1.240300 -0.000000 -9.111900 10.014144 -1.335930 -6.770997 13.755084 -17.604553 -38.863614 0.004034 -5.519394 63.590112 -1.191878 -5.167183 9.711557 -1.438100 -0.000000 -61.264500
-2.180487 16.733750 -0.574762 -124.284224 83.491452 -96.461909 -9.148088 -1.007053 -0.903519 -22.145626 0.203842 -54.719528 -2.652539 0.785638 26.554369 3.057412 13.133597 -8.824246 0.614201 0.000000 -5.871801 10.034472 -1.346192 -6.705584 13.710980 -17.232434 -39.379754 -0.168079 -5.652493 65.681095 -1.207537 -5.377099 8.097467 -1.373100 0.000000 -60.116700
-2.002460 16.628306 -0.609370 -121.555494 83.214552 -93.900079 -9.164606 -1.121340 -1.003125 -21.705064 0.311183 -55.212516 -2.530570 0.991972 29.245803 3.250135 13.289065 -11.423609 -0.101800 0.000000 -3.006800 10.055386 -1.344631 -6.639094 13.652685 -16.813149 -39.940922 -0.344159 -5.785978 67.776695 -1.214946 -5.515260 6.441210 -1.274800 0.000000 -59.053000
-1.828779 16.517510 -0.642317 -119.252628 82.930904 -91.759938 -9.183552 -1.246349 -1.137473 -21.296997 0.441810 -55.827224 -2.412856 1.235527 32.258733 3.432223 13.386528 -14.143406 -0.873100 0.000000 -0.570000 10.079109 -1.328292 -6.573983 13.574208 -16.359384 -40.544517 -0.523851 -5.919012 69.855049 -1.215818 -5.589452 4.805037 -1.154600 -0.000000 -58.049300
-1.659743 16.403414 -0.673082 -117.418161 82.652126 -90.086819 -9.205327 -1.376883 -1.308996 -20.945125 0.606752 -56.530602 -2.298975 1.509606 35.509738 3.600846 13.457803 -16.878467 178.337301 0.000000 -1.392100 10.108169 -1.293198 -6.514217 13.463870 -15.886006 -41.185429 -0.706629 -6.051189 71.894129 -1.211560 -5.608475 3.239853 -1.023500 -0.000000 -57.084300
-1.495684 16.288193 -0.701280 -116.083670 82.390964 -88.917537 -9.230117 -1.507044 -1.518077 -20.667473 0.811138 -57.273781 -2.187385 1.804399 38.895248 3.753489 13.531023 -19.526217 177.561800 0.000000 -2.850800 10.144391 -1.235904 -6.464693 13.308933 -15.409904 -41.854982 -0.891656 -6.182472 73.872752 -1.203284 -5.581888 1.781664 -0.890699 0.000000 -56.130300
-1.336381 16.174120 -0.726179 -115.300577 82.166998 -88.297834 -9.254207 -1.627660 -1.756401 -20.480666 1.031391 -58.009412 -2.075753 2.107216 42.301464 3.891271 13.636477 -22.000121 176.823499 -0.000001 -3.837000 10.190587 -1.151401 -6.426414 13.091990 -14.943032 -42.559657 -1.078388 -6.312966 75.773855 -1.192381 -5.521629 0.454218 -0.763700 0.000001 -55.199300
-1.181982 16.063267 -0.747896 -115.100088 81.987303 -88.268092 -9.278011 -1.734005 -2.022542 -20.390284 1.267930 -58.678307 -1.963246 2.406835 45.626025 4.010831 13.775305 -24.235939 176.139700 -0.000000 -4.364100 10.245880 -1.039661 -6.404091 12.804493 -14.502459 -43.283228 -1.264739 -6.442977 77.577492 -1.179315 -5.435471 -0.738527 -0.646400 0.000000 -54.257100
-1.032122 15.957501 -0.766324 -115.542969 81.859811 -88.888365 -9.299380 -1.820231 -2.307804 -20.398466 1.499315 -59.233517 -1.849832 2.691906 48.777820 4.111496 13.944927 -26.196204 175.520500 0.000000 -4.495400 10.309661 -0.900600 -6.397678 12.438751 -14.098773 -44.023598 -1.448715 -6.572689 79.268038 -1.164999 -5.333060 -1.802027 -0.541100 -0.000000 -53.310900
-0.886321 15.858364 -0.781738 -116.695654 81.782444 -90.226762 -9.318042 -1.883706 -2.604182 -20.498267 1.709351 -59.634113 -1.737033 2.953158 51.687454 4.191810 14.128997 -27.869684 174.972901 0.000000 -4.301100 10.379424 -0.737159 -6.406473 11.994704 -13.740328 -44.773909 -1.627622 -6.702199 80.831311 -1.150068 -5.221880 -2.752960 -0.447800 -0.000001 -52.363600
-0.743939 15.766933 -0.794740 -118.626492 81.743154 -92.352363 -9.335526 -1.924674 -2.902771 -20.675172 1.882740 -59.850258 -1.627521 3.183480 54.307505 4.250535 14.304030 -29.267240 174.500999 0.000000 -3.859600 10.450945 -0.554801 -6.428271 11.480228 -13.431209 -45.527296 -1.798412 -6.831263 82.255548 -1.135136 -5.108455 -3.613754 -0.365400 0.000000 -51.423700
-0.604331 15.683789 -0.806131 -121.387669 81.719549 -95.318116 -9.354842 -1.946272 -3.194984 -20.908720 2.006923 -59.863446 -1.524559 3.378286 56.613550 4.287331 14.445467 -30.419361 174.105900 0.000001 -3.253400 10.518926 -0.360565 -6.460273 10.909461 -13.171905 -46.277408 -1.957961 -6.959475 83.532686 -1.120603 -4.997094 -4.409759 -0.292100 0.000000 -50.501600
